<svg xmlns="http://www.w3.org/2000/svg" version="1.1" xmlns:xlink="http://www.w3.org/1999/xlink" xmlns:svgjs="http://svgjs.dev/svgjs" width="1500" height="935" viewBox="0 0 1500 935"><g transform="matrix(1,0,0,1,-0.9090909090909918,0.3785425101214628)"><svg viewBox="0 0 396 247" data-background-color="#ffffff" preserveAspectRatio="xMidYMid meet" height="935" width="1500" xmlns="http://www.w3.org/2000/svg" xmlns:xlink="http://www.w3.org/1999/xlink"><g id="tight-bounds" transform="matrix(1,0,0,1,0.2400000000000091,-0.09999999999999432)"><svg viewBox="0 0 395.52 247.2" height="247.2" width="395.52"><g><svg></svg></g><g><svg viewBox="0 0 395.52 247.2" height="247.2" width="395.52"><g transform="matrix(1,0,0,1,75.54432,79.00605968172958)"><svg viewBox="0 0 244.43135999999998 89.18788063654083" height="89.18788063654083" width="244.43135999999998"><g><svg viewBox="0 0 413.9142227879176 151.02862536040942" height="89.18788063654083" width="244.43135999999998"><g transform="matrix(1,0,0,1,169.4828627879176,36.49238264937223)"><svg viewBox="0 0 244.43135999999998 78.04386006166496" height="78.04386006166496" width="244.43135999999998"><g id="textblocktransform"><svg viewBox="0 0 244.43135999999998 78.04386006166496" height="78.04386006166496" width="244.43135999999998" id="textblock"><g><svg viewBox="0 0 244.43135999999998 78.04386006166496" height="78.04386006166496" width="244.43135999999998"><g transform="matrix(1,0,0,1,0,0)"><svg width="244.43135999999998" viewBox="1.9 -35 145.94 46.6" height="78.04386006166496" data-palette-color="#028349"><path d="M13.3-19.5Q17.15-18.55 19.18-15.98 21.2-13.4 21.2-10.2L21.2-10.2Q21.2-7.35 19.88-4.88 18.55-2.4 16.03-0.9 13.5 0.6 10.1 0.6L10.1 0.6Q7.45 0.6 5.63-0.1 3.8-0.8 1.9-2L1.9-2 1.9-6Q2.75-4.15 5-2.75 7.25-1.35 10-1.35L10-1.35Q13.65-1.35 15.63-3.58 17.6-5.8 17.6-9.1L17.6-9.1Q17.6-13 15.2-15.1 12.8-17.2 9.15-17.2L9.15-17.2 8.2-17.2 8.2-18Q11.5-19.15 13.55-21.28 15.6-23.4 15.6-26.2L15.6-26.2Q15.6-28.75 14.13-30.38 12.65-32 10.05-32L10.05-32Q8.45-32 7.05-31.2 5.65-30.4 4.78-28.88 3.9-27.35 3.9-25.25L3.9-25.25Q3-26.45 3-28.3L3-28.3Q3-31.35 5.25-33.18 7.5-35 10.65-35L10.65-35Q14.1-35 16.45-33 18.8-31 18.8-27.6L18.8-27.6Q18.8-25.4 17.32-23.15 15.85-20.9 13.3-19.5L13.3-19.5ZM26.4-16.25Q26.4-21.85 27.75-26.13 29.1-30.4 31.47-32.7 33.85-35 36.85-35L36.85-35Q39.8-35 42.15-33 44.5-31 45.85-27.2 47.2-23.4 47.2-18.15L47.2-18.15Q47.2-12.55 45.85-8.28 44.5-4 42.12-1.7 39.75 0.6 36.75 0.6L36.75 0.6Q33.8 0.6 31.45-1.4 29.1-3.4 27.75-7.2 26.4-11 26.4-16.25L26.4-16.25ZM43.6-15.7Q43.6-21.2 42.65-25.15 41.7-29.1 40.05-31.13 38.4-33.15 36.35-33.2L36.35-33.2Q34.5-33.2 33.05-31.4 31.6-29.6 30.8-26.33 30-23.05 30-18.7L30-18.7Q30-13.2 30.95-9.25 31.9-5.3 33.55-3.25 35.2-1.2 37.25-1.2L37.25-1.2Q39.1-1.2 40.55-3 42-4.8 42.8-8.08 43.6-11.35 43.6-15.7L43.6-15.7ZM51.99-16.25Q51.99-21.85 53.34-26.13 54.7-30.4 57.07-32.7 59.45-35 62.45-35L62.45-35Q65.39-35 67.75-33 70.09-31 71.44-27.2 72.8-23.4 72.8-18.15L72.8-18.15Q72.8-12.55 71.44-8.28 70.09-4 67.72-1.7 65.34 0.6 62.34 0.6L62.34 0.6Q59.39 0.6 57.05-1.4 54.7-3.4 53.34-7.2 51.99-11 51.99-16.25L51.99-16.25ZM69.19-15.7Q69.19-21.2 68.25-25.15 67.3-29.1 65.64-31.13 63.99-33.15 61.95-33.2L61.95-33.2Q60.09-33.2 58.64-31.4 57.2-29.6 56.39-26.33 55.59-23.05 55.59-18.7L55.59-18.7Q55.59-13.2 56.55-9.25 57.49-5.3 59.14-3.25 60.8-1.2 62.84-1.2L62.84-1.2Q64.69-1.2 66.14-3 67.59-4.8 68.39-8.08 69.19-11.35 69.19-15.7L69.19-15.7ZM95.29-0.85Q93.99-0.4 92.32-0.2 90.64 0 87.69 0L87.69 0 79.44 0Q80.09-0.15 80.84-1.13 81.59-2.1 81.59-4.9L81.59-4.9 81.59-29.65Q81.59-32.25 80.89-33.23 80.19-34.2 79.49-34.4L79.49-34.4 87.69-34.4Q90.89-34.4 92.57-34.13 94.24-33.85 95.49-33.3L95.49-33.3Q97.69-32.25 98.89-30.35 100.09-28.45 100.09-26.25L100.09-26.25Q100.09-22.9 98.07-20.48 96.04-18.05 92.74-17.35L92.74-17.35Q94.99-17.1 97.02-16.05 99.04-15 100.32-13.2 101.59-11.4 101.59-9.1L101.59-9.1Q101.59-5.9 99.89-3.88 98.19-1.85 95.29-0.85L95.29-0.85ZM93.89-30.9Q92.89-31.65 91.74-32.02 90.59-32.4 88.64-32.4L88.64-32.4 85.19-32.4 85.19-18.2 89.24-18.2Q91.04-18.2 92.24-18.75 93.44-19.3 94.34-20.2L94.34-20.2Q95.29-21.15 95.84-22.5 96.39-23.85 96.39-25.25L96.39-25.25Q96.39-26.95 95.77-28.45 95.14-29.95 93.89-30.9L93.89-30.9ZM94.94-14.75Q93.99-15.5 92.59-15.85 91.19-16.2 88.79-16.2L88.79-16.2 85.19-16.2 85.19-2 89.94-2Q93.54-2 95.57-3.7 97.59-5.4 97.59-9.1L97.59-9.1Q97.59-12.55 94.94-14.75L94.94-14.75ZM120.79-2.9Q118.29 0.6 114.64 0.6L114.64 0.6Q112.09 0.6 110.44-1.07 108.79-2.75 108.79-6.2L108.79-6.2 108.79-13.3Q108.79-15.35 108.16-16.45 107.54-17.55 106.74-17.95 105.94-18.35 105.94-18.2L105.94-18.2 111.99-18.2 111.99-6.95Q111.99-4.6 113.26-3.35 114.54-2.1 116.29-2.1L116.29-2.1Q118.04-2.1 119.41-3.28 120.79-4.45 120.79-6.35L120.79-6.35 120.79-13.65Q120.79-15.6 120.29-16.6 119.79-17.6 119.14-17.95 118.49-18.3 118.49-18.2L118.49-18.2 123.99-18.2 123.99-5.65Q123.99-3.55 124.66-2.78 125.34-2 126.19-2L126.19-2 126.49-2 120.79 0.6 120.79-2.9ZM136.44-0.15L136.99-1.5 131.14-14.75Q130.29-16.65 129.51-17.38 128.74-18.1 128.29-18.2L128.29-18.2 135.59-18.2Q135.14-18.1 134.69-17.75 134.24-17.4 134.24-16.5L134.24-16.5Q134.24-15.65 134.74-14.6L134.74-14.6 138.79-5.25 142.39-14.1Q142.74-15 142.74-15.95L142.74-15.95Q142.74-16.85 142.36-17.45 141.99-18.05 141.14-18.2L141.14-18.2 147.84-18.2Q147.29-18.1 146.41-17.35 145.54-16.6 144.69-14.55L144.69-14.55 137.89 1.25Q136.54 4.4 135.89 6.23 135.24 8.05 134.64 10L134.64 10Q134.39 10.95 134.14 11.6L134.14 11.6 129.04 11.6Q130.39 10.95 132.36 7.95 134.34 4.95 136.44-0.15L136.44-0.15Z" opacity="1" transform="matrix(1,0,0,1,0,0)" fill="#028349" class="wordmark-text-0" data-fill-palette-color="primary" id="text-0"></path></svg></g></svg></g></svg></g></svg></g><g><svg viewBox="0 0 151.05858048 151.02862536040942" height="151.02862536040942" width="151.05858048"><g><svg xmlns="http://www.w3.org/2000/svg" xmlns:xlink="http://www.w3.org/1999/xlink" version="1.1" x="0" y="0" viewBox="5.47923610795375 6.76 752.2101642868406 752.061" enable-background="new 0 0 763.17 763.17" xml:space="preserve" height="151.02862536040942" width="151.05858048" class="icon-icon-0" data-fill-palette-color="accent" id="icon-0"><path d="M752.539 389.267l-0.042-12.085c3.59-3.017 5.529-6.133 5.132-11.139-0.193-2.46-1.351-4.573-2.844-6.313-0.098-0.118-0.208-0.234-0.311-0.351-0.038-0.042-0.075-0.085-0.114-0.126-2.042-2.271-4.963-4.35-8.588-6.73-3.781-46.12-16.123-89.813-35.438-129.488 3.212-2.323 4.903-4.711 4.903-7.148 0 0-0.005-0.116-0.024-0.301 0.041-0.427 0.024-0.687 0.024-0.687 0-3.149-2.813-6.217-8.108-9.167l-0.618-1.061-10.344-18.019c0.061-0.135 0.112-0.268 0.167-0.402 0.543-0.946 0.833-1.9 0.833-2.863 0 0-0.009-0.06-0.023-0.145 0.014-0.106 0.023-0.181 0.023-0.181 0-1.029-0.317-2.049-0.936-3.058-0.053-0.129-0.102-0.258-0.16-0.387-0.026 0.021-0.048 0.037-0.074 0.057-2.375-3.491-8.376-6.853-17.549-10.025C615.973 82.779 516.315 24.453 402.767 17.963v-5.907c0-2.912-2.384-5.296-5.296-5.296-2.908 0-5.289 2.379-5.295 5.286h-21.187c-0.006-2.907-2.387-5.286-5.295-5.286-2.912 0-5.296 2.384-5.296 5.296v5.907c-107.967 6.172-203.381 59.204-266.21 139.081-2.95-0.624-5.668-1.097-8.112-1.395-8.452-1.019-13.009-1.221-15.605 3.072-0.153 0.873-0.268 1.46-0.328 1.93-0.726 2.039-0.002 4.339 1.622 7.094-0.083 0.088-0.161 0.176-0.253 0.264l-30.654 52.497c-3.917-0.08-6.551 0.68-7.901 3.426-2.56 3.669 0.54 8.948 5.635 15.757 1.266 1.691 2.735 3.489 4.393 5.383C29.3 278.684 20.479 314.793 17.386 352.525c-5.389 3.544-8.962 6.185-10.669 10.034-0.727 1.175-1.18 2.361-1.156 3.485-0.518 4.792 1.455 7.975 5.074 11.052l0.042 12.097c-3.584 3.015-5.52 6.132-5.127 11.132 0.229 2.9 1.797 5.317 3.673 7.208 2.024 2.108 4.816 4.075 8.223 6.311 0.001 0.001 0.003 0.002 0.004 0.002 3.781 44.937 15.691 87.558 34.257 126.39-2.491 2.056-3.788 4.161-3.788 6.304 0 0-0.449 1.173 0.431 3.095 0.015 0.039 0.033 0.077 0.05 0.115 0.023 0.049 0.051 0.1 0.076 0.15 0.69 1.535 2.058 3.048 4.052 4.534 0.544 0.427 1.126 0.862 1.8 1.311-0.031-0.045-0.052-0.088-0.082-0.133 0.561 0.354 1.155 0.707 1.788 1.059l10.93 19.05c-0.111 0.252-0.209 0.5-0.297 0.745-0.432 0.844-0.676 1.695-0.676 2.553 0 0-0.137 0.624 0.246 1.681 1.09 3.762 6.391 7.39 15.338 10.812 62.249 89.308 163.355 149.506 278.821 156.106v5.907c0 2.917 2.384 5.296 5.296 5.296s5.296-2.379 5.296-5.296h21.185c0 2.917 2.384 5.296 5.296 5.296 2.912 0 5.296-2.379 5.296-5.296v-5.907C510.749 741.446 606.173 688.402 669 608.507c2.942 0.622 5.652 1.093 8.09 1.389 8.451 1.024 13.013 1.221 15.609-3.072 0.154-0.884 0.27-1.476 0.328-1.95 0.686-2.02-0.04-4.302-1.65-7.033 0.093-0.099 0.182-0.198 0.287-0.296l30.622-52.471c3.917 0.083 6.544-0.671 7.898-3.408 2.62-3.682-0.489-8.977-5.595-15.806-1.267-1.692-2.738-3.491-4.399-5.387 13.576-33.357 22.362-69.173 25.514-106.594 0.029-0.019 0.061-0.038 0.09-0.057 5.378-3.543 8.947-6.176 10.658-10.012 0.728-1.176 1.18-2.363 1.155-3.487C758.127 395.528 756.156 392.344 752.539 389.267zM669.888 236.885c15.336 30.247 26.051 63.23 31.221 98.026-26.778-7.269-62.019-13.559-103.39-18.477v-68.782C626.349 244.605 650.816 240.966 669.888 236.885zM597.719 202.334v-9.475c13.244 1.372 25.653 2.866 37.087 4.472C623.597 199.128 611.172 200.8 597.719 202.334zM402.767 60.43c81.625 5.285 154.981 40.87 208.941 95.636-4.513-0.601-9.186-1.183-13.989-1.747v-10.898H402.767V60.43zM211.55 526.678l2.684-2.679 3.269 3.268 2.586-2.596-3.263-3.269 2.524-2.523 3.274 3.278 2.591-2.607-3.269-3.269 2.602-2.596 3.264 3.269-1.215 1.22 1.681 1.677-10.402 10.406-1.67-1.686-1.38 1.376L211.55 526.678zM192.486 172.763v-4.619h3.569v4.619h3.678v-4.619h3.677v4.619h-1.717v2.394h-14.715v-2.394h-1.939v-4.619h3.781v4.619H192.486zM210.872 163.37v-4.93h3.563v4.93h3.672v-4.93h3.791v4.93h-1.83v2.394H205.25v-2.394h-1.841v-4.93h3.672v4.93H210.872zM229.255 172.763v-4.619h3.569v4.619h3.78v-4.619h3.678v4.619h-1.837v2.394h-14.699v-2.394h-1.846v-4.619h3.678v4.619H229.255zM186.977 206.34v-4.774h51.468v4.774h-1.841l0.041 5.617c1.557 3.387 2.617 7.116 3.202 11.079h-9.207c-1.717-10.888-9.139-19.075-18.04-19.075-8.906 0-16.334 8.197-18.04 19.095h-8.927c0.594-3.951 1.697-7.711 3.186-11.047v-5.669H186.977zM186.977 199.181v-2.395h51.458v2.395H186.977zM236.604 177.691v11.787h-11.037v-11.787H236.604zM218.108 168.143v21.335h-11.037v-21.335H218.108zM238.435 192.008v2.25h-51.458v-2.25H238.435zM188.819 189.478v-11.787h10.913v11.787H188.819zM198.005 225.429c0-10.551 6.589-19.09 14.714-19.09 8.111 0 14.699 8.539 14.699 19.09h15.49c0.657 2.297 1.154 4.691 1.48 7.158h-63.555c0.362-2.404 0.879-4.882 1.556-7.158H198.005zM192.496 332.011v-4.619h3.57v4.619h3.677v-4.619h3.678v4.619h-1.717v2.384h-14.715v-2.384h-1.94v-4.619h3.786v4.619H192.496zM210.883 322.603v-4.914h3.563v4.914h3.672v-4.914h3.791v4.914h-1.831v2.394h-14.818v-2.394h-1.841v-4.914h3.672v4.914H210.883zM218.119 327.381v21.335h-11.037v-21.335H218.119zM238.445 351.246v2.245h-51.457v-2.245H238.445zM225.577 348.717v-11.793h11.037v11.793H225.577zM238.445 356.024v2.395h-51.457v-2.395H238.445zM188.834 348.717v-11.793h10.908v11.793H188.834zM186.988 365.578v-4.779h51.468v4.779h-1.841l0.041 5.612c1.557 3.393 2.617 7.121 3.201 11.084h-9.206c-1.717-10.892-9.139-19.08-18.04-19.08-8.906 0-16.333 8.197-18.036 19.1h-8.942c0.605-3.951 1.706-7.711 3.201-11.047v-5.669H186.988zM238.455 332.011v2.384h-14.699v-2.384h-1.846v-4.619h3.678v4.619h3.677v-4.619h3.57v4.619h3.781v-4.619h3.678v4.619H238.455zM182.4 384.663h15.614c0-10.536 6.59-19.086 14.715-19.086 8.115 0 14.699 8.549 14.699 19.086h15.49c0.657 2.301 1.154 4.706 1.479 7.157h-63.555C181.205 389.421 181.723 386.944 182.4 384.663zM248.023 490.215l2.597-2.596 3.258 3.269-1.293 1.292 1.686 1.686-10.391 10.396-1.696-1.686-1.293 1.303-3.269-3.269 2.591-2.596 3.274 3.269 2.607-2.607-3.274-3.269 2.524-2.523 3.269 3.268 2.684-2.668L248.023 490.215zM279.025 521.144c3.497 1.313 6.884 3.197 10.096 5.596l-6.516 6.496c-8.906-6.486-19.954-7.024-26.244-0.734-6.294 6.299-5.74 17.358 0.75 26.264l-6.314 6.32c-2.37-3.218-4.246-6.652-5.55-10.076l-4.003-4.003-1.313 1.303-3.367-3.382 36.386-36.391 3.377 3.383-1.303 1.292L279.025 521.144zM234.865 547.242l-1.696-1.697 36.396-36.39 1.686 1.696L234.865 547.242zM231.39 543.767l-1.588-1.593 36.386-36.391 1.588 1.593L231.39 543.767zM222.959 501.541l2.524-2.514 3.481 3.486 2.596-2.607-3.486-3.475 2.695-2.689 3.471 3.486-1.293 1.304 1.686 1.685-10.474 10.479-1.697-1.686-1.303 1.293-3.475-3.475 2.596-2.597 3.486 3.476 2.679-2.68L222.959 501.541zM234.938 503.29l15.087 15.082-7.799 7.799-15.083-15.082L234.938 503.29zM255.3 513.096l-8.327-8.338 7.795-7.799 8.337 8.337L255.3 513.096zM228.69 523.036l8.337 8.328-7.711 7.717-8.337-8.328L228.69 523.036zM254.157 575.223c-1.453-1.966-2.829-4.087-3.972-6.175L261.233 558c-7.458-7.448-8.845-18.144-3.104-23.885 5.741-5.741 16.437-4.355 23.895 3.093l10.949-10.955c2.099 1.169 4.132 2.504 6.113 4.024L254.157 575.223zM254.525 416.265V243.402h254.218v172.862c0 73.837-56.649 133.678-126.747 133.678C311.894 549.942 254.525 490.101 254.525 416.265zM361.438 172.607v-4.618h3.569v4.618h3.662v-4.618h3.677v4.618h-1.717v2.379h-14.699v-2.379h-1.949v-4.618h3.78v4.618H361.438zM405.555 172.607v-4.618h3.662v4.618h-1.83v2.379h-14.704v-2.379h-1.831v-4.618h3.667v4.618h3.672v-4.618h3.569v4.618H405.555zM355.928 206.174v-4.779h51.458v4.779h-1.831l0.041 5.612c1.547 3.388 2.617 7.116 3.186 11.079h-9.206c-1.713-10.888-9.139-19.075-18.036-19.075-8.911 0-16.323 8.197-18.04 19.095h-8.927c0.59-3.947 1.692-7.711 3.186-11.048v-5.663H355.928zM407.386 191.852v2.245h-51.458v-2.245H407.386zM357.76 189.308v-11.787h10.908v11.787H357.76zM379.824 163.209v-4.923h3.549v4.923h3.687v-4.923h3.791v4.923h-1.841v2.384h-14.823v-2.384h-1.842v-4.923h3.678v4.923H379.824zM387.06 167.978v21.33h-11.037v-21.33H387.06zM394.518 189.308v-11.787h11.037v11.787H394.518zM407.386 196.616v2.395h-51.458v-2.395H407.386zM366.956 225.259c0-10.541 6.574-19.084 14.699-19.084 8.115 0 14.703 8.544 14.703 19.084h15.486c0.657 2.312 1.152 4.702 1.484 7.174h-63.555c0.357-2.416 0.89-4.888 1.557-7.174H366.956zM510.037 490.887l3.274-3.269 2.668 2.679-3.264 3.269 2.596 2.596 3.274-3.269 2.519 2.524-3.274 3.269 2.596 2.596 3.274-3.269 2.596 2.596-3.263 3.269-1.22-1.22-1.681 1.686-10.401-10.396 1.681-1.685L510.037 490.887zM529.876 172.763v-4.619h3.569v4.619h3.678v-4.619h3.672v4.619h-1.722v2.394h-14.704v-2.394h-1.95v-4.619h3.791v4.619H529.876zM548.264 163.37v-4.93h3.558v4.93h3.678v-4.93h3.791v4.93h-1.831v2.394h-14.828v-2.394h-1.836v-4.93h3.667v4.93H548.264zM566.645 172.763v-4.619h3.569v4.619h3.781v-4.619h3.667v4.619h-1.837v2.394h-14.699v-2.394h-1.836v-4.619h3.677v4.619H566.645zM524.368 206.34v-4.774h51.457v4.774h-1.83l0.041 5.617c1.547 3.387 2.616 7.116 3.19 11.079h-9.195c-1.728-10.888-9.155-19.075-18.051-19.075-8.897 0-16.323 8.197-18.041 19.095h-8.926c0.594-3.951 1.696-7.711 3.196-11.047v-5.669H524.368zM524.368 199.181v-2.395h51.457v2.395H524.368zM573.995 177.691v11.787h-11.037v-11.787H573.995zM555.499 168.143v21.335h-11.037v-21.335H555.499zM575.825 192.008v2.25h-51.457v-2.25H575.825zM526.209 189.478v-11.787h10.913v11.787H526.209zM535.395 225.429c0-10.551 6.59-19.09 14.704-19.09 8.12 0 14.699 8.539 14.699 19.09h15.496c0.646 2.297 1.159 4.691 1.473 7.158h-63.555c0.362-2.404 0.89-4.882 1.557-7.158H535.395zM529.876 332.011v-4.619h3.569v4.619h3.678v-4.619h3.672v4.619h-1.722v2.384h-14.704v-2.384h-1.95v-4.619h3.791v4.619H529.876zM548.264 322.603v-4.914h3.558v4.914h3.678v-4.914h3.791v4.914h-1.831v2.394h-14.828v-2.394h-1.836v-4.914h3.667v4.914H548.264zM555.499 327.381v21.335h-11.037v-21.335H555.499zM575.825 351.246v2.245h-51.457v-2.245H575.825zM562.958 348.717v-11.793h11.037v11.793H562.958zM575.825 356.024v2.395h-51.457v-2.395H575.825zM526.209 348.717v-11.793h10.913v11.793H526.209zM524.368 365.578v-4.779h51.457v4.779h-1.83l0.041 5.612c1.547 3.393 2.616 7.121 3.19 11.084h-9.195c-1.728-10.892-9.155-19.08-18.051-19.08-8.897 0-16.323 8.197-18.041 19.1h-8.926c0.594-3.951 1.696-7.711 3.196-11.047v-5.669H524.368zM575.825 332.011v2.384h-14.699v-2.384h-1.836v-4.619h3.677v4.619h3.678v-4.619h3.569v4.619h3.781v-4.619h3.667v4.619H575.825zM519.77 384.663h15.625c0-10.536 6.59-19.086 14.704-19.086 8.12 0 14.699 8.549 14.699 19.086h15.496c0.646 2.311 1.159 4.706 1.473 7.157h-63.555C518.575 389.421 519.103 386.954 519.77 384.663zM549.091 529.947l-1.293-1.283-1.67 1.676-10.406-10.396 1.686-1.685-1.304-1.304 3.274-3.269 2.596 2.596-3.263 3.279 2.596 2.596 3.274-3.269 2.519 2.524-3.274 3.279 2.679 2.668 3.264-3.269 2.607 2.587L549.091 529.947zM522.77 551.09l-3.94 4.003c-1.304 3.497-3.181 6.879-5.581 10.085l-6.507-6.516c6.496-8.896 7.034-19.943 0.746-26.232-6.295-6.3-17.353-5.741-26.275 0.754l-6.31-6.319c3.206-2.379 6.651-4.252 10.076-5.556l4.003-4.003-1.304-1.303 3.378-3.383 36.396 36.391-3.377 3.382L522.77 551.09zM492.751 510.935l1.681-1.708 36.397 36.401-1.692 1.697L492.751 510.935zM496.222 507.458l1.593-1.583 36.385 36.381-1.593 1.593L496.222 507.458zM529.675 497.228l3.486-3.475 2.596 2.596-3.475 3.475 2.679 2.689 3.486-3.486 2.508 2.524-3.486 3.475 2.607 2.607 3.486-3.486 2.679 2.68-3.486 3.486-1.303-1.304-1.681 1.697-10.489-10.49 1.696-1.685L529.675 497.228zM536.699 510.996l-15.083 15.092-7.81-7.799 15.083-15.081L536.699 510.996zM534.697 539.174l-7.81-7.81 8.337-8.328 7.799 7.8L534.697 539.174zM516.941 504.758l-8.321 8.338-7.711-7.718 8.321-8.327L516.941 504.758zM470.941 526.253l11.047 11.037c7.448-7.448 18.144-8.833 23.885-3.093 5.741 5.741 4.355 16.437-3.104 23.896l10.965 10.944c-1.179 2.099-2.514 4.137-4.024 6.123l-44.946-44.945C466.725 528.767 468.841 527.392 470.941 526.253zM547.469 561.017C547.469 561.017 547.469 561.017 547.469 561.017c7.557 3.566 14.921 6.982 22.026 10.202-10.823 0.946-22.083 1.825-33.669 2.632C539.875 569.732 543.759 565.451 547.469 561.017zM360.397 60.43v82.991H165.55v10.885c-4.841 0.568-9.549 1.154-14.096 1.76C205.415 101.3 278.772 65.715 360.397 60.43zM76.511 276.265c15.819 13.054 35.514 27.962 58.384 44.212-28.325 4.162-52.925 9.027-72.844 14.434C65.055 314.688 69.941 295.082 76.511 276.265zM58.513 382.79c0-1.499 0.036-2.989 0.057-4.483 27.197-7.715 63.744-14.367 106.98-19.515v48.758c-43.229-5.144-79.778-11.789-106.97-19.499C58.552 386.299 58.513 384.55 58.513 382.79zM91.849 525.836c-14.461-29.235-24.641-60.963-29.689-94.38 27.168 7.368 63.033 13.728 105.165 18.673v0c2.856 22.111 9.097 43.17 18.167 62.664 0 0 0-0.001-0.001-0.002C147.388 516.254 115.375 520.701 91.849 525.836zM211.917 555.667c5.268 6.661 10.924 13.002 16.927 18.998 0 0-0.001-0.001-0.001-0.001-38.156-2.402-72.181-5.674-100.362-9.607C151.631 561.349 179.892 558.166 211.917 555.667zM147.77 605.744c37.553 5.176 85.964 9.096 140.73 11.206 22.162 10.643 46.395 17.634 71.897 20.195v68.005C276.906 699.745 202.051 662.652 147.77 605.744zM402.767 705.15v-67.888c-0.001 0-0.002 0-0.003 0 25.99-2.453 50.628-9.507 73.086-20.359 54.273-2.121 102.256-6.021 139.541-11.159C561.111 662.653 486.258 699.745 402.767 705.15zM686.661 489.285c-15.607-12.878-34.981-27.559-57.458-43.555 27.875-4.122 52.113-8.927 71.794-14.261C697.986 451.399 693.139 470.724 686.661 489.285zM704.58 388.054c-27.176 7.701-63.678 14.345-106.861 19.488v-48.741c43.185 5.144 79.698 11.788 106.871 19.496 0.02 1.497 0.057 2.991 0.057 4.493C704.646 384.55 704.608 386.301 704.58 388.054zM352.169 265.192v40.539c0 17.306 13.282 31.343 29.496 31.343 16.22 0 29.332-14.037 29.332-31.343v-40.539H352.169zM367.622 319.691c-3.041 0-5.487-2.457-5.487-5.488s2.446-5.477 5.487-5.477c3.016 0 5.473 2.447 5.473 5.477S370.638 319.691 367.622 319.691zM367.622 283.275c-3.041 0-5.487-2.447-5.487-5.477 0-3.031 2.446-5.488 5.487-5.488 3.016 0 5.473 2.457 5.473 5.488C373.096 280.828 370.638 283.275 367.622 283.275zM381.582 301.496c-3.031 0-5.487-2.462-5.487-5.488 0-3.031 2.456-5.487 5.487-5.487 3.032 0 5.488 2.456 5.488 5.487C387.07 299.034 384.614 301.496 381.582 301.496zM395.542 319.691c-3.03 0-5.477-2.457-5.477-5.488s2.447-5.477 5.477-5.477c3.041 0 5.488 2.447 5.488 5.477S398.583 319.691 395.542 319.691zM395.542 283.275c-3.03 0-5.477-2.447-5.477-5.477 0-3.031 2.447-5.488 5.477-5.488 3.041 0 5.488 2.457 5.488 5.488C401.03 280.828 398.583 283.275 395.542 283.275zM352.169 399.775c0 17.317 13.282 31.354 29.496 31.354 16.22 0 29.332-14.037 29.332-31.354v-40.502h-58.827V399.775zM395.542 366.385c3.041 0 5.488 2.467 5.488 5.497 0 3.016-2.447 5.472-5.488 5.472-3.03 0-5.477-2.456-5.477-5.472C390.065 368.852 392.512 366.385 395.542 366.385zM395.542 402.786c3.041 0 5.488 2.451 5.488 5.472 0 3.031-2.447 5.483-5.488 5.483-3.03 0-5.477-2.452-5.477-5.483C390.065 405.237 392.512 402.786 395.542 402.786zM381.582 384.58c3.032 0 5.488 2.457 5.488 5.488 0 3.036-2.456 5.467-5.488 5.467-3.031 0-5.487-2.431-5.487-5.467C376.095 387.037 378.552 384.58 381.582 384.58zM367.622 366.385c3.016 0 5.473 2.467 5.473 5.497 0 3.016-2.457 5.472-5.473 5.472-3.041 0-5.487-2.456-5.487-5.472C362.136 368.852 364.581 366.385 367.622 366.385zM367.622 402.786c3.016 0 5.473 2.451 5.473 5.472 0 3.031-2.457 5.483-5.473 5.483-3.041 0-5.487-2.452-5.487-5.483C362.136 405.237 364.581 402.786 367.622 402.786zM352.169 493.856c0 17.315 13.282 31.332 29.496 31.332 16.22 0 29.332-14.017 29.332-31.332v-40.529h-58.827V493.856zM395.542 460.434c3.041 0 5.488 2.472 5.488 5.492 0 3.021-2.447 5.483-5.488 5.483-3.03 0-5.477-2.462-5.477-5.483C390.065 462.906 392.512 460.434 395.542 460.434zM395.542 496.856c3.041 0 5.488 2.451 5.488 5.482 0 3.041-2.447 5.483-5.488 5.483-3.03 0-5.477-2.442-5.477-5.483C390.065 499.307 392.512 496.856 395.542 496.856zM381.582 478.65c3.032 0 5.488 2.462 5.488 5.483 0 3.02-2.456 5.483-5.488 5.483-3.031 0-5.487-2.463-5.487-5.483C376.095 481.112 378.552 478.65 381.582 478.65zM367.622 460.434c3.016 0 5.473 2.472 5.473 5.492 0 3.021-2.457 5.483-5.473 5.483-3.041 0-5.487-2.462-5.487-5.483C362.136 462.906 364.581 460.434 367.622 460.434zM367.622 496.856c3.016 0 5.473 2.451 5.473 5.482 0 3.041-2.457 5.483-5.473 5.483-3.041 0-5.487-2.442-5.487-5.483C362.136 499.307 364.581 496.856 367.622 496.856zM276.113 399.775c0 17.317 13.261 31.354 29.491 31.354 16.214 0 29.33-14.037 29.33-31.354v-40.502h-58.822V399.775zM319.491 366.385c3.025 0 5.472 2.467 5.472 5.497 0 3.016-2.447 5.472-5.472 5.472-3.03 0-5.488-2.456-5.488-5.472C314.004 368.852 316.461 366.385 319.491 366.385zM319.491 402.786c3.025 0 5.472 2.451 5.472 5.472 0 3.031-2.447 5.483-5.472 5.483-3.03 0-5.488-2.452-5.488-5.483C314.004 405.237 316.461 402.786 319.491 402.786zM305.517 384.58c3.031 0 5.487 2.457 5.487 5.488 0 3.036-2.456 5.467-5.487 5.467-3.026 0-5.488-2.431-5.488-5.467C300.029 387.037 302.491 384.58 305.517 384.58zM291.557 366.385c3.03 0 5.477 2.467 5.477 5.497 0 3.016-2.447 5.472-5.477 5.472-3.031 0-5.497-2.456-5.497-5.472C286.06 368.852 288.527 366.385 291.557 366.385zM291.557 402.786c3.03 0 5.477 2.451 5.477 5.472 0 3.031-2.447 5.483-5.477 5.483-3.031 0-5.497-2.452-5.497-5.483C286.06 405.237 288.527 402.786 291.557 402.786zM428.229 359.273v40.502c0 17.317 13.117 31.354 29.332 31.354 16.219 0 29.491-14.037 29.491-31.354v-40.502H428.229zM443.673 413.741c-3.015 0-5.472-2.452-5.472-5.483 0-3.021 2.457-5.472 5.472-5.472 3.032 0 5.488 2.451 5.488 5.472C449.161 411.288 446.705 413.741 443.673 413.741zM443.673 377.354c-3.015 0-5.472-2.456-5.472-5.472 0-3.031 2.457-5.497 5.472-5.497 3.032 0 5.488 2.467 5.488 5.497C449.161 374.898 446.705 377.354 443.673 377.354zM457.649 395.534c-3.031 0-5.488-2.431-5.488-5.467 0-3.031 2.456-5.488 5.488-5.488 3.025 0 5.472 2.457 5.472 5.488C463.121 393.103 460.674 395.534 457.649 395.534zM471.607 413.741c-3.031 0-5.487-2.452-5.487-5.483 0-3.021 2.456-5.472 5.487-5.472 3.031 0 5.488 2.451 5.488 5.472C477.095 411.288 474.639 413.741 471.607 413.741zM471.607 377.354c-3.031 0-5.487-2.456-5.487-5.472 0-3.031 2.456-5.497 5.487-5.497 3.031 0 5.488 2.467 5.488 5.497C477.095 374.898 474.639 377.354 471.607 377.354zM382.824 174.65h-2.544v8.472h2.544V174.65zM236.666 510.996l-1.801 1.8 5.985 5.99 1.8-1.801L236.666 510.996zM500.758 539.226c-3.599-3.611-10.318-2.752-15.009 1.944l13.07 13.075C503.515 549.549 504.368 542.836 500.758 539.226zM497.846 549.642l-7.489-7.49c2.679-2.689 6.538-3.196 8.601-1.116C501.021 543.094 500.535 546.952 497.846 549.642zM381.593 213.333c-5.105 0-9.248 5.368-9.248 12.014h18.506C390.851 218.701 386.697 213.333 381.593 213.333zM376.297 222.781c0-3.811 2.374-6.884 5.296-6.884 2.922 0 5.296 3.073 5.296 6.884H376.297zM252.141 503.972l3.739 3.744 1.805-1.8-3.739-3.734L252.141 503.972zM508.087 507.769l3.75-3.744-1.8-1.8-3.75 3.744L508.087 507.769zM361.985 185.921h2.545v-5.296h-2.545V185.921zM231.7 531.892l-3.739-3.744-1.8 1.8 3.75 3.744L231.7 531.892zM263.157 539.226c-3.61 3.61-2.74 10.323 1.939 15.019l13.081-13.075C273.485 536.474 266.773 535.615 263.157 539.226zM266.084 549.632c-2.695-2.689-3.192-6.538-1.112-8.606 2.064-2.069 5.906-1.573 8.601 1.116L266.084 549.632zM398.733 185.921h2.539v-5.296h-2.539V185.921zM550.042 213.503c-5.115 0-9.247 5.368-9.247 11.999h18.495C559.29 218.871 555.153 213.503 550.042 213.503zM544.746 222.942c0-3.807 2.364-6.879 5.296-6.879 2.928 0 5.296 3.072 5.296 6.879H544.746zM536.021 528.209l-3.75 3.744 1.8 1.801 3.75-3.745L536.021 528.209zM551.263 334.054h-2.545v8.477h2.545V334.054zM567.183 345.324h2.544v-5.296h-2.544V345.324zM550.042 372.736c-5.115 0-9.247 5.374-9.247 12.015h18.495C559.29 378.11 555.153 372.736 550.042 372.736zM544.746 382.175c0-3.802 2.364-6.873 5.296-6.873 2.928 0 5.296 3.072 5.296 6.873H544.746zM569.727 180.795h-2.544v5.296h2.544V180.795zM521.203 516.924l1.8 1.8 5.984-5.989-1.8-1.8L521.203 516.924zM551.263 174.821h-2.545v8.472h2.545V174.821zM530.44 186.091h2.54v-5.296h-2.54V186.091zM213.883 174.821h-2.54v8.472h2.54V174.821zM212.667 372.736c-5.11 0-9.247 5.374-9.247 12.015h18.49C221.91 378.11 217.772 372.736 212.667 372.736zM207.371 382.186c0-3.812 2.37-6.884 5.296-6.884 2.922 0 5.296 3.072 5.296 6.884H207.371zM193.06 345.324h2.539v-5.296h-2.539V345.324zM229.802 345.324h2.545v-5.296h-2.545V345.324zM213.893 334.054h-2.54v8.477h2.54V334.054zM193.05 186.091h2.539v-5.296h-2.539V186.091zM232.337 180.795h-2.545v5.296h2.545V180.795zM212.652 213.503c-5.106 0-9.243 5.368-9.243 11.999h18.49C221.899 218.871 217.762 213.503 212.652 213.503zM207.356 222.942c0-3.807 2.374-6.879 5.296-6.879 2.927 0 5.296 3.072 5.296 6.879H207.356zM530.44 345.324h2.54v-5.296h-2.54V345.324z" fill="#a81111" data-fill-palette-color="accent"></path></svg></g></svg></g></svg></g></svg></g><g><path d="M0 123.6c0-68.262 55.338-123.6 123.6-123.6 50.454 0 93.847 30.23 113.054 73.566h-2.278c-19.071-42.157-61.498-71.488-110.776-71.488-67.115 0-121.522 54.407-121.522 121.522 0 67.115 54.407 121.522 121.522 121.522 49.278 0 91.706-29.331 110.776-71.488h2.278c-19.207 43.336-62.6 73.566-113.054 73.566-68.262 0-123.6-55.338-123.6-123.6z" fill="#eeda10" stroke="transparent" data-fill-palette-color="tertiary"></path></g></svg></g><defs></defs></svg><rect width="395.52" height="247.2" fill="none" stroke="none" visibility="hidden"></rect></g></svg></g></svg>